{"title":"real-time-with-bill-maher-2013-07-12.mp4","uid":8681392,"size":313730340,"categoryP":"video","categoryS":"tv_shows","magnet":"?xt=urn:btih:3cda18f424a0365df814908c822c6fb7f5b468db&amp;dn=real-time-with-bill-maher-2013-07-12.mp4&amp;tr=udp%3A%2F%2Ftracker.openbittorrent.com%3A80&amp;tr=udp%3A%2F%2Fopen.demonii.com%3A1337&amp;tr=udp%3A%2F%2Ftracker.coppersurfer.tk%3A6969&amp;tr=udp%3A%2F%2Fexodus.desync.com%3A6969","seeders":1,"leechers":0,"uploader":null,"files":1,"time":1373711690,"description":"\nReal Time With Bill Maher\nS11, E22\n(First Aired: Jul. 12, 2013)\nJournalist Bobby Ghosh; TV personality Mike Rowe; columnist Matt Lewis; political consultant Liz Mair; professor Cornel West.\nHDCCTV-14\n\nSpecs:\nGeneral\nComplete name                    : C:Usersprocessor1Documentsreal-time-with-bill-maher-2013-07-12.mp4\nFormat                           : MPEG-4\nFormat profile                   : Base Media / Version 2\nCodec ID                         : mp42\nFile size                        : 299 MiB\nDuration                         : 58mn 12s\nOverall bit rate mode            : Variable\nOverall bit rate                 : 719 Kbps\nEncoded date                     : UTC 2013-07-13 05:09:26\nTagged date                      : UTC 2013-07-13 05:20:01\nWriting application              : HandBrake 0.9.8 2012071700\n\nVideo\nID                               : 1\nFormat                           : AVC\nFormat/Info                      : Advanced Video Codec\nFormat profile                   : &lt;a class=&quot;__cf_email__&quot; href=&quot;/cdn-cgi/l/email-protection&quot; data-cfemail=&quot;8cc1ede5e2ccc0bfa2bc&quot;&gt;[email&amp;#160;protected]&lt;/a&gt;&lt;script cf-hash='f9e31' type=&quot;text/javascript&quot;&gt;\n/* &lt;![CDATA[ */!function(){try{var t=&quot;currentScript&quot;in document?document.currentScript:function(){for(var t=document.getElementsByTagName(&quot;script&quot;),e=t.length;e--;)if(t[e].getAttribute(&quot;cf-hash&quot;))return t[e]}();if(t&amp;&amp;t.previousSibling){var e,r,n,i,c=t.previousSibling,a=c.getAttribute(&quot;data-cfemail&quot;);if(a){for(e=&quot;&quot;,r=parseInt(a.substr(0,2),16),n=2;a.length-n;n+=2)i=parseInt(a.substr(n,2),16)^r,e+=String.fromCharCode(i);e=document.createTextNode(e),c.parentNode.replaceChild(e,c)}}}catch(u){}}();/* ]]&gt; */&lt;/script&gt;\nFormat settings, CABAC           : Yes\nFormat settings, ReFrames        : 4 frames\nCodec ID                         : avc1\nCodec ID/Info                    : Advanced Video Coding\nDuration                         : 58mn 12s\nBit rate mode                    : Variable\nBit rate                         : 524 Kbps\nWidth                            : 720 pixels\nHeight                           : 400 pixels\nDisplay aspect ratio             : 16:9\nFrame rate mode                  : Variable\nFrame rate                       : 29.970 fps\nMinimum frame rate               : 29.920 fps\nMaximum frame rate               : 30.020 fps\nColor space                      : YUV\nChroma subsampling               : 4:2:0\nBit depth                        : 8 bits\nScan type                        : Progressive\nBits/(Pixel*Frame)               : 0.061\nStream size                      : 218 MiB (73%)\nWriting library                  : x264 core 120\nEncoding settings                : cabac=1 / ref=1 / deblock=1:0:0 / analyse=0x1:0x111 / me=hex / subme=2 / psy=1 / psy_rd=1.00:0.00 / mixed_ref=0 / me_range=16 / chroma_me=1 / trellis=0 / 8x8dct=0 / cqm=0 / deadzone=21,11 / fast_pskip=1 / chroma_qp_offset=0 / threads=12 / sliced_threads=0 / nr=0 / decimate=1 / interlaced=0 / bluray_compat=0 / constrained_intra=0 / bframes=3 / b_pyramid=2 / b_adapt=1 / b_bias=0 / direct=1 / weightb=1 / open_gop=0 / weightp=1 / keyint=300 / keyint_min=30 / scenecut=40 / intra_refresh=0 / rc_lookahead=10 / rc=crf / mbtree=1 / crf=20.0 / qcomp=0.60 / qpmin=3 / qpmax=69 / qpstep=4 / ip_ratio=1.40 / aq=1:1.00\nEncoded date                     : UTC 2013-07-13 05:09:26\nTagged date                      : UTC 2013-07-13 05:20:01\nColor primaries                  : BT.709-5, BT.1361, IEC 61966-2-4, SMPTE RP177\nTransfer characteristics         : BT.709-5, BT.1361\nMatrix coefficients              : BT.709-5, BT.1361, IEC 61966-2-4 709, SMPTE RP177\n\nAudio\nID                               : 2\nFormat                           : MPEG Audio\nFormat version                   : Version 1\nFormat profile                   : Layer 3\nCodec ID                         : 69\nDuration                         : 58mn 11s\nBit rate mode                    : Variable\nBit rate                         : 190 Kbps\nMaximum bit rate                 : 230 Kbps\nChannel(s)                       : 2 channels\nSampling rate                    : 48.0 KHz\nCompression mode                 : Lossy\nStream size                      : 79.1 MiB (26%)\nLanguage                         : English\nEncoded date                     : UTC 2013-07-13 05:09:26\nTagged date                      : UTC 2013-07-13 05:20:01","torrent":{"xt":"urn:btih:3cda18f424a0365df814908c822c6fb7f5b468db","amp;dn":"real-time-with-bill-maher-2013-07-12.mp4","amp;tr":["udp%3A%2F%2Ftracker.openbittorrent.com%3A80","udp%3A%2F%2Fopen.demonii.com%3A1337","udp%3A%2F%2Ftracker.coppersurfer.tk%3A6969","udp%3A%2F%2Fexodus.desync.com%3A6969"],"infoHash":"3cda18f424a0365df814908c822c6fb7f5b468db","infoHashBuffer":{"type":"Buffer","data":[60,218,24,244,36,160,54,93,248,20,144,140,130,44,111,183,245,180,104,219]},"announce":[],"urlList":[]}}